<mxfile host="app.diagrams.net" modified="2022-11-17T09:22:17.854Z" agent="5.0 (Windows NT 10.0; Win64; x64) AppleWebKit/537.36 (KHTML, like Gecko) Chrome/107.0.0.0 Safari/537.36 Edg/107.0.1418.42" etag="UKEB9MmOkmFpjXLb7RYY" version="20.5.3" type="github">
  <diagram id="okWKafTFLNZm4eEbJfr1" name="第 1 页">
    <mxGraphModel dx="992" dy="571" grid="1" gridSize="10" guides="1" tooltips="1" connect="1" arrows="1" fold="1" page="1" pageScale="1" pageWidth="827" pageHeight="1169" math="0" shadow="0">
      <root>
        <mxCell id="0" />
        <mxCell id="1" parent="0" />
        <mxCell id="g5UghXbC0-JbCps197jc-11" value="" style="edgeStyle=orthogonalEdgeStyle;rounded=0;orthogonalLoop=1;jettySize=auto;html=1;" edge="1" parent="1" source="g5UghXbC0-JbCps197jc-1" target="g5UghXbC0-JbCps197jc-10">
          <mxGeometry relative="1" as="geometry" />
        </mxCell>
        <mxCell id="g5UghXbC0-JbCps197jc-1" value="" style="rounded=0;whiteSpace=wrap;html=1;" vertex="1" parent="1">
          <mxGeometry x="100" y="200" width="100" height="60" as="geometry" />
        </mxCell>
        <mxCell id="g5UghXbC0-JbCps197jc-13" value="" style="edgeStyle=orthogonalEdgeStyle;rounded=0;orthogonalLoop=1;jettySize=auto;html=1;" edge="1" parent="1" source="g5UghXbC0-JbCps197jc-2" target="g5UghXbC0-JbCps197jc-12">
          <mxGeometry relative="1" as="geometry" />
        </mxCell>
        <mxCell id="g5UghXbC0-JbCps197jc-2" value="" style="rounded=0;whiteSpace=wrap;html=1;" vertex="1" parent="1">
          <mxGeometry x="100" y="280" width="100" height="60" as="geometry" />
        </mxCell>
        <mxCell id="g5UghXbC0-JbCps197jc-15" value="" style="edgeStyle=orthogonalEdgeStyle;rounded=0;orthogonalLoop=1;jettySize=auto;html=1;" edge="1" parent="1" source="g5UghXbC0-JbCps197jc-3" target="g5UghXbC0-JbCps197jc-14">
          <mxGeometry relative="1" as="geometry" />
        </mxCell>
        <mxCell id="g5UghXbC0-JbCps197jc-3" value="" style="ellipse;whiteSpace=wrap;html=1;" vertex="1" parent="1">
          <mxGeometry x="330" y="200" width="120" height="60" as="geometry" />
        </mxCell>
        <mxCell id="g5UghXbC0-JbCps197jc-17" value="" style="edgeStyle=orthogonalEdgeStyle;rounded=0;orthogonalLoop=1;jettySize=auto;html=1;" edge="1" parent="1" source="g5UghXbC0-JbCps197jc-4" target="g5UghXbC0-JbCps197jc-16">
          <mxGeometry relative="1" as="geometry" />
        </mxCell>
        <mxCell id="g5UghXbC0-JbCps197jc-4" value="" style="ellipse;whiteSpace=wrap;html=1;" vertex="1" parent="1">
          <mxGeometry x="330" y="280" width="120" height="60" as="geometry" />
        </mxCell>
        <mxCell id="g5UghXbC0-JbCps197jc-5" value="" style="rounded=0;whiteSpace=wrap;html=1;" vertex="1" parent="1">
          <mxGeometry x="570" y="200" width="110" height="60" as="geometry" />
        </mxCell>
        <mxCell id="g5UghXbC0-JbCps197jc-6" value="" style="rounded=0;whiteSpace=wrap;html=1;" vertex="1" parent="1">
          <mxGeometry x="570" y="280" width="110" height="60" as="geometry" />
        </mxCell>
        <mxCell id="g5UghXbC0-JbCps197jc-7" value="学生" style="text;html=1;strokeColor=none;fillColor=none;align=center;verticalAlign=middle;whiteSpace=wrap;rounded=0;" vertex="1" parent="1">
          <mxGeometry x="120" y="215" width="60" height="30" as="geometry" />
        </mxCell>
        <mxCell id="g5UghXbC0-JbCps197jc-8" value="老师" style="text;html=1;strokeColor=none;fillColor=none;align=center;verticalAlign=middle;whiteSpace=wrap;rounded=0;" vertex="1" parent="1">
          <mxGeometry x="120" y="295" width="60" height="30" as="geometry" />
        </mxCell>
        <mxCell id="g5UghXbC0-JbCps197jc-10" value="" style="shape=waypoint;sketch=0;size=6;pointerEvents=1;points=[];fillColor=default;resizable=0;rotatable=0;perimeter=centerPerimeter;snapToPoint=1;rounded=0;" vertex="1" parent="1">
          <mxGeometry x="310" y="210" width="40" height="40" as="geometry" />
        </mxCell>
        <mxCell id="g5UghXbC0-JbCps197jc-12" value="" style="shape=waypoint;sketch=0;size=6;pointerEvents=1;points=[];fillColor=default;resizable=0;rotatable=0;perimeter=centerPerimeter;snapToPoint=1;rounded=0;" vertex="1" parent="1">
          <mxGeometry x="310" y="290" width="40" height="40" as="geometry" />
        </mxCell>
        <mxCell id="g5UghXbC0-JbCps197jc-14" value="" style="shape=waypoint;sketch=0;size=6;pointerEvents=1;points=[];fillColor=default;resizable=0;rotatable=0;perimeter=centerPerimeter;snapToPoint=1;" vertex="1" parent="1">
          <mxGeometry x="550" y="210" width="40" height="40" as="geometry" />
        </mxCell>
        <mxCell id="g5UghXbC0-JbCps197jc-16" value="" style="shape=waypoint;sketch=0;size=6;pointerEvents=1;points=[];fillColor=default;resizable=0;rotatable=0;perimeter=centerPerimeter;snapToPoint=1;" vertex="1" parent="1">
          <mxGeometry x="550" y="290" width="40" height="40" as="geometry" />
        </mxCell>
        <mxCell id="g5UghXbC0-JbCps197jc-18" value="实验管理系统" style="text;html=1;strokeColor=none;fillColor=none;align=center;verticalAlign=middle;whiteSpace=wrap;rounded=0;" vertex="1" parent="1">
          <mxGeometry x="360" y="300" width="60" height="30" as="geometry" />
        </mxCell>
        <mxCell id="g5UghXbC0-JbCps197jc-19" value="实验管理系统" style="text;html=1;strokeColor=none;fillColor=none;align=center;verticalAlign=middle;whiteSpace=wrap;rounded=0;" vertex="1" parent="1">
          <mxGeometry x="360" y="215" width="60" height="30" as="geometry" />
        </mxCell>
        <mxCell id="g5UghXbC0-JbCps197jc-20" value="学生" style="text;html=1;strokeColor=none;fillColor=none;align=center;verticalAlign=middle;whiteSpace=wrap;rounded=0;" vertex="1" parent="1">
          <mxGeometry x="595" y="215" width="60" height="30" as="geometry" />
        </mxCell>
        <mxCell id="g5UghXbC0-JbCps197jc-24" value="老师" style="text;html=1;strokeColor=none;fillColor=none;align=center;verticalAlign=middle;whiteSpace=wrap;rounded=0;" vertex="1" parent="1">
          <mxGeometry x="590" y="295" width="60" height="30" as="geometry" />
        </mxCell>
        <mxCell id="g5UghXbC0-JbCps197jc-25" value="登录信息" style="text;html=1;strokeColor=none;fillColor=none;align=center;verticalAlign=middle;whiteSpace=wrap;rounded=0;" vertex="1" parent="1">
          <mxGeometry x="240" y="280" width="60" height="30" as="geometry" />
        </mxCell>
        <mxCell id="g5UghXbC0-JbCps197jc-27" value="登录信息" style="text;html=1;strokeColor=none;fillColor=none;align=center;verticalAlign=middle;whiteSpace=wrap;rounded=0;" vertex="1" parent="1">
          <mxGeometry x="240" y="190" width="60" height="30" as="geometry" />
        </mxCell>
        <mxCell id="g5UghXbC0-JbCps197jc-28" value="系统执行信息反馈" style="text;html=1;strokeColor=none;fillColor=none;align=center;verticalAlign=middle;whiteSpace=wrap;rounded=0;" vertex="1" parent="1">
          <mxGeometry x="470" y="190" width="60" height="30" as="geometry" />
        </mxCell>
        <mxCell id="g5UghXbC0-JbCps197jc-29" value="系统执行信息反馈" style="text;html=1;strokeColor=none;fillColor=none;align=center;verticalAlign=middle;whiteSpace=wrap;rounded=0;" vertex="1" parent="1">
          <mxGeometry x="480" y="270" width="60" height="30" as="geometry" />
        </mxCell>
        <mxCell id="g5UghXbC0-JbCps197jc-30" style="edgeStyle=orthogonalEdgeStyle;rounded=0;orthogonalLoop=1;jettySize=auto;html=1;exitX=0.5;exitY=1;exitDx=0;exitDy=0;" edge="1" parent="1" source="g5UghXbC0-JbCps197jc-25" target="g5UghXbC0-JbCps197jc-25">
          <mxGeometry relative="1" as="geometry" />
        </mxCell>
      </root>
    </mxGraphModel>
  </diagram>
</mxfile>
